<svg xmlns="http://www.w3.org/2000/svg" xmlns:xlink="http://www.w3.org/1999/xlink" viewBox="0 0 1190.55 1190.55"><defs><style>.cls-1,.cls-3,.cls-4,.cls-5{fill:none;}.cls-2{fill:#a7e8e4;}.cls-3{stroke:blue;}.cls-3,.cls-4,.cls-5{stroke-miterlimit:10;}.cls-4{stroke:#07ad07;}.cls-5{stroke:red;}.cls-6{clip-path:url(#clip-path);}.cls-7{clip-path:url(#clip-path-2);}</style><clipPath id="clip-path"><rect class="cls-1" x="337.32" y="337.32" width="239.53" height="239.53"/></clipPath><clipPath id="clip-path-2"><circle class="cls-1" cx="874.02" cy="687.31" r="257.95"/></clipPath></defs><title>Tavola disegno 1</title><g id="Sfondo"><rect class="cls-2" width="1190.55" height="1190.55"/></g><g id="_6x6" data-name="6x6"><g id="Livello_4" data-name="Livello 4"><rect class="cls-3" x="60.95" y="60.85" width="147.4" height="147.4"/><rect class="cls-3" x="982.21" y="60.85" width="147.4" height="147.4"/><rect class="cls-3" x="245.21" y="60.85" width="147.4" height="147.4"/><rect class="cls-3" x="429.46" y="60.85" width="147.4" height="147.4"/><rect class="cls-3" x="613.71" y="60.85" width="147.4" height="147.4"/><rect class="cls-3" x="797.96" y="60.85" width="147.4" height="147.4"/><rect class="cls-3" x="60.95" y="245.11" width="147.4" height="147.4"/><rect class="cls-3" x="982.21" y="245.11" width="147.4" height="147.4"/><rect class="cls-3" x="245.21" y="245.11" width="147.4" height="147.4"/><rect class="cls-3" x="429.46" y="245.11" width="147.4" height="147.4"/><rect class="cls-3" x="613.71" y="245.11" width="147.4" height="147.4"/><rect class="cls-3" x="797.96" y="245.11" width="147.4" height="147.4"/><rect class="cls-3" x="60.95" y="429.36" width="147.4" height="147.4"/><rect class="cls-3" x="982.21" y="429.36" width="147.4" height="147.4"/><rect class="cls-3" x="245.21" y="429.36" width="147.4" height="147.4"/><rect class="cls-3" x="429.46" y="429.36" width="147.4" height="147.4"/><rect class="cls-3" x="613.71" y="429.36" width="147.4" height="147.4"/><rect class="cls-3" x="797.96" y="429.36" width="147.4" height="147.4"/><rect class="cls-3" x="60.95" y="613.61" width="147.4" height="147.4"/><rect class="cls-3" x="982.21" y="613.61" width="147.4" height="147.4"/><rect class="cls-3" x="245.21" y="613.61" width="147.4" height="147.4"/><rect class="cls-3" x="429.46" y="613.61" width="147.4" height="147.4"/><rect class="cls-3" x="613.71" y="613.61" width="147.4" height="147.4"/><rect class="cls-3" x="797.96" y="613.61" width="147.4" height="147.4"/><rect class="cls-3" x="60.95" y="797.86" width="147.4" height="147.4"/><rect class="cls-3" x="982.21" y="797.86" width="147.4" height="147.4"/><rect class="cls-3" x="245.21" y="797.86" width="147.4" height="147.4"/><rect class="cls-3" x="429.46" y="797.86" width="147.4" height="147.4"/><rect class="cls-3" x="613.71" y="797.86" width="147.4" height="147.4"/><rect class="cls-3" x="797.96" y="797.86" width="147.4" height="147.4"/><rect class="cls-3" x="60.95" y="982.11" width="147.4" height="147.4"/><rect class="cls-3" x="982.21" y="982.11" width="147.4" height="147.4"/><rect class="cls-3" x="245.21" y="982.11" width="147.4" height="147.4"/><rect class="cls-3" x="429.46" y="982.11" width="147.4" height="147.4"/><rect class="cls-3" x="613.71" y="982.11" width="147.4" height="147.4"/><rect class="cls-3" x="797.96" y="982.11" width="147.4" height="147.4"/></g></g><g id="_5x5" data-name="5x5"><g id="Livello_3" data-name="Livello 3"><rect class="cls-4" x="60.95" y="60.84" width="184.25" height="184.25"/><rect class="cls-4" x="945.36" y="60.84" width="184.25" height="184.25"/><rect class="cls-4" x="282.06" y="60.84" width="184.25" height="184.25"/><rect class="cls-4" x="503.16" y="60.84" width="184.25" height="184.25"/><rect class="cls-4" x="724.26" y="60.84" width="184.25" height="184.25"/><rect class="cls-4" x="60.95" y="281.95" width="184.25" height="184.25"/><rect class="cls-4" x="945.36" y="281.95" width="184.25" height="184.25"/><rect class="cls-4" x="282.06" y="281.95" width="184.25" height="184.25"/><rect class="cls-4" x="503.16" y="281.95" width="184.25" height="184.25"/><rect class="cls-4" x="724.26" y="281.95" width="184.25" height="184.25"/><rect class="cls-4" x="60.95" y="503.05" width="184.25" height="184.25"/><rect class="cls-4" x="945.36" y="503.05" width="184.25" height="184.25"/><rect class="cls-4" x="282.06" y="503.05" width="184.25" height="184.25"/><rect class="cls-4" x="503.16" y="503.05" width="184.25" height="184.25"/><rect class="cls-4" x="724.26" y="503.05" width="184.25" height="184.25"/><rect class="cls-4" x="60.95" y="724.15" width="184.25" height="184.25"/><rect class="cls-4" x="945.36" y="724.15" width="184.25" height="184.25"/><rect class="cls-4" x="282.06" y="724.15" width="184.25" height="184.25"/><rect class="cls-4" x="503.16" y="724.15" width="184.25" height="184.25"/><rect class="cls-4" x="724.26" y="724.15" width="184.25" height="184.25"/><rect class="cls-4" x="60.95" y="945.46" width="184.25" height="184.25"/><rect class="cls-4" x="945.36" y="945.46" width="184.25" height="184.25"/><rect class="cls-4" x="282.06" y="945.46" width="184.25" height="184.25"/><rect class="cls-4" x="503.16" y="945.46" width="184.25" height="184.25"/><rect class="cls-4" x="724.26" y="945.46" width="184.25" height="184.25"/></g></g><g id="_4x4" data-name="4x4"><rect class="cls-5" x="60.94" y="60.94" width="239.53" height="239.53"/><rect class="cls-5" x="890.08" y="60.94" width="239.53" height="239.53"/><rect class="cls-5" x="613.7" y="60.94" width="239.53" height="239.53"/><rect class="cls-5" x="337.32" y="60.94" width="239.53" height="239.53"/><rect class="cls-5" x="60.94" y="337.32" width="239.53" height="239.53"/><rect class="cls-5" x="890.08" y="337.32" width="239.53" height="239.53"/><rect class="cls-5" x="613.7" y="337.32" width="239.53" height="239.53"/><g class="cls-6"><image width="564" height="853" transform="translate(197.11 129.11)" xlink:href="../../../Elementi visivi/Links/131b807f79e4ca8f7ce05eb06060959f.jpg"/></g><rect class="cls-5" x="60.94" y="613.7" width="239.53" height="239.53"/><rect class="cls-5" x="890.08" y="613.7" width="239.53" height="239.53"/><rect class="cls-5" x="613.7" y="613.7" width="239.53" height="239.53"/><rect class="cls-5" x="337.32" y="613.7" width="239.53" height="239.53"/><rect class="cls-5" x="60.94" y="890.08" width="239.53" height="239.53"/><rect class="cls-5" x="890.08" y="890.08" width="239.53" height="239.53"/><rect class="cls-5" x="613.7" y="890.08" width="239.53" height="239.53"/><rect class="cls-5" x="337.32" y="890.08" width="239.53" height="239.53"/></g><g id="Img"><g class="cls-7"><image width="564" height="835" transform="translate(420.81 -78.9) scale(1.29)" xlink:href="../../../Elementi visivi/Links/1b9e349d7e40a39ffc952b1fd4519a5d.jpg"/></g></g></svg>